<svg width="544" height="59" viewBox="0 0 544 59" fill="none" xmlns="http://www.w3.org/2000/svg">
<path d="M386.202 40.2551C385.952 40.49 385.659 40.6703 385.335 40.7876C384.698 41.0201 384.007 40.9906 383.393 40.7045C382.778 40.4184 382.31 39.9089 382.078 39.2718C379.559 32.3671 374.558 31.0273 374.346 30.9734C372.999 30.654 372.156 29.2835 372.479 27.9206C372.594 27.4359 372.847 26.999 373.21 26.6586C373.836 26.0713 374.709 25.8389 375.544 26.0354C375.862 26.1113 383.374 27.9936 386.85 37.5305C387.199 38.4886 386.946 39.5575 386.202 40.2551Z" fill="#15DFB5"/>
<path d="M440.608 43.9434C440.29 44.073 439.953 44.1367 439.608 44.1298C438.93 44.1187 438.296 43.8437 437.825 43.3565C437.354 42.8693 437.099 42.2259 437.11 41.5478C437.232 34.1991 433.043 31.1565 432.865 31.0304C431.722 30.2497 431.425 28.6679 432.215 27.5114C432.496 27.1 432.889 26.7828 433.35 26.595C434.144 26.271 435.042 26.3666 435.752 26.8493C436.022 27.0342 442.361 31.4826 442.19 41.632C442.172 42.6513 441.553 43.5585 440.608 43.9434Z" fill="#0084FF"/>
<path d="M404.09 44.1178C403.51 44.6619 402.698 44.9049 401.915 44.7696C400.537 44.5297 399.61 43.2136 399.848 41.8368C399.893 41.5767 400.992 35.4333 405.108 31.5727C407.026 29.7736 409.301 28.7296 411.87 28.4697C413.263 28.3283 414.512 29.3473 414.655 30.7413C414.734 31.5358 414.447 32.305 413.864 32.8515C413.456 33.2351 412.942 33.469 412.383 33.5255C410.979 33.6678 409.702 34.2678 408.59 35.3105C405.735 37.9894 404.861 42.6613 404.854 42.7094C404.758 43.2529 404.493 43.7415 404.09 44.1202L404.09 44.1178Z" fill="#938BD8"/>
<path d="M394.938 41.3898C394.484 41.8165 394.074 42.1046 393.87 42.2356C393.303 42.6067 392.624 42.7349 391.96 42.596C391.296 42.457 390.726 42.067 390.355 41.4999C389.681 40.4657 389.843 39.1026 390.743 38.2588C390.847 38.1605 390.962 38.07 391.082 37.9908C391.156 37.941 391.239 37.8768 391.324 37.8051C388.373 36.2322 387.804 33.9248 387.731 32.6744C387.627 30.8962 388.388 29.0626 389.767 27.7694C390.031 27.5213 390.317 27.2937 390.616 27.095C390.877 26.9224 391.104 26.745 391.294 26.5676C391.725 26.1625 391.835 25.8673 391.833 25.7569C391.828 25.6142 391.637 25.2896 391.121 24.9806C389.586 24.0639 388.056 21.9737 388.323 19.5517C388.466 18.2574 389.095 17.0542 390.146 16.069C391.141 15.1353 392.53 14.3703 394.279 13.7941C394.922 13.5817 395.611 13.6322 396.217 13.9379C396.824 14.2436 397.274 14.7674 397.487 15.4112C397.795 16.3469 397.53 17.3858 396.811 18.0606C396.54 18.3147 396.224 18.5029 395.869 18.6192C394.514 19.0667 393.89 19.5276 393.638 19.7637C393.441 19.9483 393.38 20.0778 393.373 20.111C393.361 20.2135 393.557 20.5147 393.726 20.6156C395.705 21.7955 396.866 23.6248 396.914 25.633C396.937 26.5918 396.689 28.4727 394.762 30.2802C394.371 30.647 393.922 30.9982 393.429 31.3258C393.365 31.3696 393.301 31.4196 393.242 31.4748C392.965 31.7349 392.791 32.0949 392.807 32.3731C392.826 32.6922 393.19 33.0521 393.803 33.363C396.181 34.5669 396.756 36.199 396.821 37.3562C396.919 39.1403 395.854 40.5329 394.943 41.3875L394.938 41.3898Z" fill="#A461FF"/>
<path d="M432.749 43.4677C432.441 44.0102 432.135 44.4068 431.98 44.5924C431.548 45.115 430.937 45.4391 430.262 45.5033C429.587 45.5674 428.927 45.3641 428.405 44.9326C427.453 44.1451 427.204 42.7952 427.813 41.7225C427.884 41.5975 427.966 41.4771 428.058 41.3658C428.113 41.2965 428.174 41.2103 428.233 41.1169C424.949 40.4901 423.72 38.4556 423.28 37.2831C422.653 35.6159 422.836 33.639 423.769 31.9949C423.948 31.6795 424.153 31.3773 424.38 31.0989C424.578 30.8567 424.742 30.6198 424.87 30.3942C425.163 29.8792 425.18 29.5648 425.145 29.4601C425.098 29.3251 424.819 29.0719 424.235 28.9298C422.497 28.5098 420.415 26.9678 419.952 24.5757C419.704 23.2972 419.949 21.9614 420.659 20.7089C421.333 19.522 422.432 18.3793 423.931 17.3103C424.483 16.9164 425.156 16.7603 425.826 16.8724C426.495 16.9844 427.081 17.351 427.475 17.9028C428.047 18.7049 428.102 19.7756 427.615 20.6334C427.432 20.9564 427.186 21.2299 426.882 21.4461C425.721 22.2756 425.261 22.9011 425.091 23.2012C424.957 23.4359 424.937 23.5776 424.94 23.6115C424.959 23.7129 425.236 23.9424 425.427 23.9886C427.667 24.5283 429.319 25.9308 429.961 27.8341C430.267 28.743 430.588 30.613 429.284 32.9107C429.019 33.377 428.695 33.8456 428.322 34.3046C428.273 34.3655 428.227 34.4322 428.187 34.5023C428 34.8329 427.941 35.2284 428.038 35.4892C428.151 35.7886 428.605 36.0243 429.283 36.1391C431.912 36.5832 432.945 37.9712 433.35 39.0571C433.973 40.7319 433.369 42.3776 432.753 43.464L432.749 43.4677Z" fill="#FFB718"/>
<path d="M382.312 25.4531C381.932 25.809 381.416 25.9784 380.895 25.9197C380.379 25.861 379.916 25.5797 379.625 25.1465L378.021 22.7689C377.531 22.0418 377.64 21.0773 378.282 20.4756C378.581 20.1952 378.958 20.0312 379.373 20.0023L382.232 19.8037C382.873 19.7597 383.47 20.0503 383.828 20.5835C384.187 21.1168 384.234 21.7789 383.952 22.3561L382.693 24.9323C382.596 25.1287 382.468 25.3043 382.311 25.4518L382.312 25.4531Z" fill="#25BF6C"/>
<path d="M408.681 23.1058C408.595 23.1861 408.501 23.2574 408.401 23.3199L404.495 25.7569C403.95 26.0977 403.286 26.1199 402.719 25.8179C402.153 25.516 401.801 24.952 401.778 24.3105L401.622 19.7085C401.605 19.1961 401.808 18.703 402.179 18.3543C402.737 17.8317 403.562 17.7205 404.234 18.0791L408.298 20.2441C408.811 20.5171 409.148 21.0025 409.223 21.5763C409.298 22.1451 409.096 22.7162 408.682 23.1046L408.681 23.1058Z" fill="#15DFB5"/>
<path d="M364.76 30.6711C363.933 31.4466 362.628 31.4049 361.852 30.5782C361.077 29.7515 361.119 28.4465 361.945 27.671C362.772 26.8955 364.077 26.9372 364.853 27.7639C365.628 28.5906 365.586 29.8956 364.76 30.6711Z" fill="#FFB718"/>
<path d="M414.619 39.7395C413.792 40.5149 412.487 40.4732 411.712 39.6465C410.936 38.8198 410.978 37.5148 411.805 36.7394C412.631 35.9639 413.936 36.0056 414.712 36.8323C415.487 37.659 415.446 38.964 414.619 39.7395Z" fill="#EB5757"/>
<path d="M372.031 40.6773C371.906 40.7948 371.748 40.8802 371.578 40.9219L369.9 41.338L369.378 42.9859C369.325 43.1527 369.231 43.3034 369.105 43.4221C368.881 43.6318 368.578 43.7287 368.273 43.688C367.972 43.6486 367.705 43.4765 367.543 43.2172L366.629 41.7503L364.9 41.762C364.499 41.764 364.143 41.5407 363.972 41.177C363.802 40.8134 363.855 40.3962 364.114 40.0884L365.227 38.7656L364.681 37.1257C364.554 36.7449 364.656 36.3367 364.95 36.061C365.244 35.7853 365.657 35.708 366.03 35.86L367.631 36.5098L369.023 35.4835C369.346 35.2447 369.765 35.2172 370.118 35.4119C370.47 35.6053 370.671 35.9761 370.643 36.3756L370.521 38.0994L371.926 39.1061C372.176 39.2851 372.329 39.5615 372.349 39.8645C372.369 40.1725 372.253 40.4688 372.031 40.6773Z" fill="#FCE75F"/>
<path d="M450.449 40.8285C450.2 41.0622 449.852 41.1552 449.519 41.0764L447.836 40.6781L446.591 41.9297C446.304 42.1994 445.897 42.2781 445.529 42.1362C445.16 41.9943 444.912 41.6629 444.881 41.269L444.74 39.5467L443.198 38.7661C442.902 38.6166 442.697 38.3312 442.65 38.005C442.602 37.675 442.718 37.3428 442.96 37.1163C443.049 37.0324 443.151 36.9662 443.266 36.9178L444.86 36.2512L445.127 34.5431C445.163 34.315 445.268 34.1126 445.434 33.9568C445.636 33.7674 445.912 33.6671 446.19 33.6822C446.469 33.6973 446.723 33.822 446.905 34.0348L448.032 35.3462L449.739 35.071C450.135 35.0068 450.522 35.1754 450.746 35.5073C450.971 35.8417 450.98 36.2609 450.772 36.605L449.873 38.0821L450.663 39.6207C450.873 40.029 450.788 40.5146 450.452 40.8298L450.449 40.8285Z" fill="#FCE75F"/>
<path d="M476.202 40.2532C475.952 40.4881 475.659 40.6684 475.335 40.7857C474.698 41.0181 474.007 40.9886 473.393 40.7025C472.778 40.4164 472.31 39.9069 472.078 39.2699C469.559 32.3651 464.558 31.0253 464.346 30.9715C462.999 30.652 462.156 29.2815 462.479 27.9186C462.594 27.4339 462.847 26.9971 463.21 26.6567C463.836 26.0694 464.709 25.837 465.544 26.0335C465.862 26.1094 473.374 27.9917 476.85 37.5286C477.199 38.4866 476.946 39.5556 476.202 40.2532Z" fill="#15DFB5"/>
<path d="M494.09 44.1178C493.51 44.6619 492.698 44.9049 491.915 44.7696C490.537 44.5297 489.61 43.2136 489.848 41.8368C489.893 41.5767 490.992 35.4333 495.108 31.5727C497.026 29.7736 499.301 28.7296 501.87 28.4697C503.263 28.3283 504.512 29.3473 504.655 30.7413C504.734 31.5358 504.447 32.305 503.864 32.8515C503.456 33.2351 502.942 33.469 502.383 33.5255C500.979 33.6678 499.702 34.2678 498.59 35.3105C495.735 37.9894 494.861 42.6613 494.854 42.7094C494.758 43.2529 494.493 43.7415 494.09 44.1202L494.09 44.1178Z" fill="#938BD8"/>
<path d="M484.938 41.3917C484.484 41.8184 484.074 42.1065 483.87 42.2376C483.303 42.6086 482.624 42.7369 481.96 42.5979C481.296 42.459 480.726 42.0689 480.355 41.5018C479.681 40.4677 479.843 39.1045 480.743 38.2607C480.847 38.1624 480.962 38.0719 481.082 37.9927C481.156 37.943 481.239 37.8788 481.324 37.8071C478.373 36.2342 477.804 33.9267 477.731 32.6763C477.627 30.8981 478.388 29.0646 479.767 27.7713C480.031 27.5232 480.317 27.2956 480.616 27.097C480.877 26.9243 481.104 26.7469 481.294 26.5695C481.725 26.1644 481.835 25.8692 481.833 25.7588C481.828 25.6162 481.637 25.2915 481.121 24.9825C479.586 24.0659 478.056 21.9756 478.323 19.5537C478.466 18.2593 479.095 17.0562 480.146 16.0709C481.141 15.1372 482.53 14.3723 484.279 13.7961C484.922 13.5836 485.611 13.6342 486.217 13.9398C486.824 14.2455 487.274 14.7693 487.487 15.4132C487.795 16.3489 487.53 17.3877 486.811 18.0625C486.54 18.3166 486.224 18.5048 485.869 18.6212C484.514 19.0686 483.89 19.5296 483.638 19.7657C483.441 19.9503 483.38 20.0797 483.373 20.1129C483.361 20.2154 483.557 20.5167 483.726 20.6175C485.705 21.7975 486.866 23.6268 486.914 25.635C486.937 26.5938 486.689 28.4747 484.762 30.2822C484.371 30.6489 483.922 31.0002 483.429 31.3278C483.365 31.3716 483.301 31.4216 483.242 31.4767C482.965 31.7368 482.791 32.0969 482.807 32.375C482.826 32.6941 483.19 33.0541 483.803 33.3649C486.181 34.5688 486.756 36.2009 486.821 37.3581C486.919 39.1423 485.854 40.5348 484.943 41.3894L484.938 41.3917Z" fill="#7EE6FD"/>
<path d="M522.749 43.4697C522.441 44.0121 522.135 44.4087 521.98 44.5943C521.548 45.1169 520.937 45.441 520.262 45.5052C519.587 45.5694 518.927 45.366 518.405 44.9345C517.453 44.1471 517.204 42.7971 517.813 41.7244C517.884 41.5995 517.966 41.4791 518.058 41.3678C518.113 41.2985 518.174 41.2123 518.233 41.1189C514.949 40.4921 513.72 38.4575 513.28 37.285C512.653 35.6178 512.836 33.641 513.769 31.9969C513.948 31.6815 514.153 31.3792 514.38 31.1009C514.578 30.8586 514.742 30.6217 514.87 30.3962C515.163 29.8812 515.18 29.5667 515.145 29.4621C515.098 29.3271 514.819 29.0739 514.235 28.9318C512.497 28.5118 510.415 26.9698 509.952 24.5777C509.704 23.2992 509.949 21.9634 510.659 20.7109C511.333 19.5239 512.432 18.3813 513.931 17.3122C514.483 16.9183 515.156 16.7623 515.826 16.8743C516.495 16.9864 517.081 17.3529 517.475 17.9048C518.047 18.7068 518.102 19.7775 517.615 20.6354C517.432 20.9584 517.186 21.2318 516.882 21.4481C515.721 22.2775 515.261 22.903 515.091 23.2032C514.957 23.4378 514.937 23.5796 514.94 23.6135C514.959 23.7149 515.236 23.9444 515.427 23.9905C517.667 24.5303 519.319 25.9327 519.961 27.8361C520.267 28.745 520.588 30.6149 519.284 32.9127C519.019 33.3789 518.695 33.8475 518.322 34.3065C518.273 34.3675 518.227 34.4341 518.187 34.5042C518 34.8349 517.941 35.2303 518.038 35.4912C518.151 35.7905 518.605 36.0262 519.283 36.1411C521.912 36.5851 522.945 37.9732 523.35 39.0591C523.973 40.7339 523.369 42.3796 522.753 43.466L522.749 43.4697Z" fill="#FFB718"/>
<path d="M472.312 25.4531C471.932 25.809 471.416 25.9784 470.895 25.9197C470.379 25.861 469.916 25.5797 469.625 25.1465L468.021 22.7689C467.531 22.0418 467.64 21.0773 468.282 20.4756C468.581 20.1952 468.958 20.0312 469.373 20.0023L472.232 19.8037C472.873 19.7597 473.47 20.0503 473.828 20.5835C474.187 21.1168 474.234 21.7789 473.952 22.3561L472.693 24.9323C472.596 25.1287 472.468 25.3043 472.311 25.4518L472.312 25.4531Z" fill="#25BF6C"/>
<path d="M498.681 23.1058C498.595 23.1861 498.501 23.2574 498.401 23.3199L494.495 25.7569C493.95 26.0977 493.286 26.1199 492.719 25.8179C492.153 25.516 491.801 24.952 491.778 24.3105L491.622 19.7085C491.605 19.1961 491.808 18.703 492.179 18.3543C492.737 17.8317 493.562 17.7205 494.234 18.0791L498.298 20.2441C498.811 20.5171 499.148 21.0025 499.223 21.5763C499.298 22.1451 499.096 22.7162 498.682 23.1046L498.681 23.1058Z" fill="#15DFB5"/>
<path d="M454.76 30.6691C453.933 31.4446 452.628 31.4029 451.852 30.5762C451.077 29.7495 451.119 28.4445 451.945 27.669C452.772 26.8936 454.077 26.9353 454.853 27.762C455.628 28.5886 455.586 29.8937 454.76 30.6691Z" fill="#FFB718"/>
<path d="M504.619 39.7395C503.792 40.5149 502.487 40.4732 501.712 39.6465C500.936 38.8198 500.978 37.5148 501.805 36.7394C502.631 35.9639 503.936 36.0056 504.712 36.8323C505.487 37.659 505.446 38.964 504.619 39.7395Z" fill="#EB5757"/>
<path d="M462.031 40.6773C461.906 40.7948 461.748 40.8802 461.578 40.9219L459.9 41.338L459.378 42.9859C459.325 43.1527 459.231 43.3034 459.105 43.4221C458.881 43.6318 458.578 43.7287 458.273 43.688C457.972 43.6486 457.705 43.4765 457.543 43.2172L456.629 41.7503L454.9 41.762C454.499 41.764 454.143 41.5407 453.972 41.177C453.802 40.8134 453.855 40.3962 454.114 40.0884L455.227 38.7656L454.681 37.1257C454.554 36.7449 454.656 36.3367 454.95 36.061C455.244 35.7853 455.657 35.708 456.03 35.86L457.631 36.5098L459.023 35.4835C459.346 35.2447 459.765 35.2172 460.118 35.4119C460.47 35.6053 460.671 35.9761 460.643 36.3756L460.521 38.0994L461.926 39.1061C462.176 39.2851 462.329 39.5615 462.349 39.8645C462.369 40.1725 462.253 40.4688 462.031 40.6773Z" fill="#FCE75F"/>
<path d="M540.445 40.8265C540.196 41.0603 539.848 41.1533 539.515 41.0744L537.832 40.6761L536.587 41.9278C536.3 42.1975 535.893 42.2762 535.525 42.1343C535.156 41.9924 534.908 41.6609 534.877 41.267L534.736 39.5447L533.194 38.7642C532.898 38.6147 532.693 38.3292 532.646 38.003C532.598 37.673 532.714 37.3409 532.956 37.1143C533.045 37.0304 533.147 36.9643 533.262 36.9159L534.856 36.2492L535.123 34.5411C535.159 34.313 535.264 34.1106 535.43 33.9548C535.632 33.7654 535.908 33.6652 536.187 33.6803C536.465 33.6954 536.719 33.82 536.902 34.0328L538.028 35.3442L539.735 35.0691C540.131 35.0049 540.518 35.1734 540.743 35.5053C540.967 35.8397 540.976 36.2589 540.768 36.603L539.87 38.0802L540.659 39.6188C540.869 40.0271 540.785 40.5127 540.449 40.8279L540.445 40.8265Z" fill="#FCE75F"/>
<path d="M296.202 40.2551C295.952 40.49 295.659 40.6703 295.335 40.7876C294.698 41.0201 294.007 40.9906 293.393 40.7045C292.778 40.4184 292.31 39.9089 292.078 39.2718C289.559 32.3671 284.558 31.0273 284.346 30.9734C282.999 30.654 282.156 29.2835 282.479 27.9206C282.594 27.4359 282.847 26.999 283.21 26.6586C283.836 26.0713 284.709 25.8389 285.544 26.0354C285.862 26.1113 293.374 27.9936 296.85 37.5305C297.199 38.4886 296.946 39.5575 296.202 40.2551Z" fill="#15DFB5"/>
<path d="M314.09 44.1197C313.51 44.6639 312.698 44.9069 311.915 44.7715C310.537 44.5317 309.61 43.2155 309.848 41.8387C309.893 41.5786 310.992 35.4353 315.108 31.5746C317.026 29.7756 319.301 28.7316 321.87 28.4716C323.263 28.3302 324.512 29.3493 324.655 30.7432C324.734 31.5378 324.447 32.3069 323.864 32.8535C323.456 33.237 322.942 33.471 322.383 33.5275C320.979 33.6698 319.702 34.2697 318.59 35.3125C315.735 37.9913 314.861 42.6633 314.854 42.7114C314.758 43.2549 314.493 43.7434 314.09 44.1222L314.09 44.1197Z" fill="#938BD8"/>
<path d="M304.888 41.3917C304.433 41.8184 304.023 42.1065 303.819 42.2376C303.252 42.6086 302.573 42.7369 301.909 42.5979C301.246 42.459 300.675 42.0689 300.304 41.5018C299.63 40.4677 299.792 39.1045 300.692 38.2607C300.797 38.1624 300.911 38.0719 301.031 37.9927C301.105 37.943 301.189 37.8788 301.273 37.8071C298.322 36.2342 297.753 33.9267 297.68 32.6763C297.576 30.8981 298.337 29.0646 299.716 27.7713C299.98 27.5232 300.266 27.2956 300.565 27.097C300.826 26.9243 301.054 26.7469 301.243 26.5695C301.675 26.1644 301.784 25.8692 301.782 25.7588C301.778 25.6162 301.586 25.2915 301.07 24.9825C299.536 24.0659 298.005 21.9756 298.272 19.5537C298.415 18.2593 299.044 17.0562 300.095 16.0709C301.09 15.1372 302.479 14.3723 304.228 13.7961C304.872 13.5836 305.56 13.6342 306.167 13.9398C306.773 14.2455 307.223 14.7693 307.436 15.4132C307.744 16.3489 307.479 17.3877 306.76 18.0625C306.489 18.3166 306.173 18.5048 305.819 18.6212C304.463 19.0686 303.839 19.5296 303.587 19.7657C303.39 19.9503 303.329 20.0797 303.322 20.1129C303.31 20.2154 303.506 20.5167 303.675 20.6175C305.654 21.7975 306.815 23.6268 306.864 25.635C306.886 26.5938 306.638 28.4747 304.711 30.2822C304.32 30.6489 303.871 31.0002 303.379 31.3278C303.314 31.3716 303.25 31.4216 303.192 31.4767C302.914 31.7368 302.741 32.0969 302.756 32.375C302.775 32.6941 303.139 33.0541 303.752 33.3649C306.131 34.5688 306.706 36.2009 306.77 37.3581C306.868 39.1423 305.804 40.5348 304.893 41.3894L304.888 41.3917Z" fill="#7EE6FD"/>
<path d="M342.749 43.4677C342.441 44.0102 342.135 44.4068 341.98 44.5924C341.548 45.115 340.937 45.4391 340.262 45.5033C339.587 45.5674 338.927 45.3641 338.405 44.9326C337.453 44.1451 337.204 42.7952 337.813 41.7225C337.884 41.5975 337.966 41.4771 338.058 41.3658C338.113 41.2965 338.174 41.2103 338.233 41.1169C334.949 40.4901 333.72 38.4556 333.28 37.2831C332.653 35.6159 332.836 33.639 333.769 31.9949C333.948 31.6795 334.153 31.3773 334.38 31.0989C334.578 30.8567 334.742 30.6198 334.87 30.3942C335.163 29.8792 335.18 29.5648 335.145 29.4601C335.098 29.3251 334.819 29.0719 334.235 28.9298C332.497 28.5098 330.415 26.9678 329.952 24.5757C329.704 23.2972 329.949 21.9614 330.659 20.7089C331.333 19.522 332.432 18.3793 333.931 17.3103C334.483 16.9164 335.156 16.7603 335.826 16.8724C336.495 16.9844 337.081 17.351 337.475 17.9028C338.047 18.7049 338.102 19.7756 337.615 20.6334C337.432 20.9564 337.186 21.2299 336.882 21.4461C335.721 22.2756 335.261 22.9011 335.091 23.2012C334.957 23.4359 334.937 23.5776 334.94 23.6115C334.959 23.7129 335.236 23.9424 335.427 23.9886C337.667 24.5283 339.319 25.9308 339.961 27.8341C340.267 28.743 340.588 30.613 339.284 32.9107C339.019 33.377 338.695 33.8456 338.322 34.3046C338.273 34.3655 338.227 34.4322 338.187 34.5023C338 34.8329 337.941 35.2284 338.038 35.4893C338.151 35.7886 338.605 36.0243 339.283 36.1391C341.912 36.5832 342.945 37.9712 343.35 39.0571C343.973 40.7319 343.369 42.3776 342.753 43.464L342.749 43.4677Z" fill="#FFB718"/>
<path d="M292.261 25.4531C291.882 25.809 291.366 25.9784 290.844 25.9197C290.328 25.861 289.865 25.5797 289.574 25.1465L287.971 22.7689C287.481 22.0418 287.59 21.0773 288.231 20.4756C288.53 20.1952 288.907 20.0312 289.322 20.0023L292.181 19.8037C292.822 19.7597 293.419 20.0503 293.778 20.5835C294.136 21.1168 294.183 21.7789 293.901 22.3561L292.642 24.9323C292.545 25.1287 292.417 25.3043 292.26 25.4518L292.261 25.4531Z" fill="#25BF6C"/>
<path d="M318.63 23.1058C318.544 23.1861 318.45 23.2574 318.35 23.3199L314.444 25.7569C313.899 26.0977 313.235 26.1199 312.668 25.8179C312.102 25.516 311.75 24.952 311.728 24.3105L311.571 19.7085C311.554 19.1961 311.757 18.703 312.129 18.3543C312.686 17.8317 313.511 17.7205 314.184 18.0791L318.247 20.2441C318.76 20.5171 319.098 21.0025 319.172 21.5763C319.247 22.1451 319.045 22.7162 318.631 23.1046L318.63 23.1058Z" fill="#15DFB5"/>
<path d="M274.76 30.6691C273.933 31.4446 272.628 31.4029 271.852 30.5762C271.077 29.7495 271.119 28.4445 271.945 27.669C272.772 26.8936 274.077 26.9353 274.853 27.762C275.628 28.5886 275.586 29.8937 274.76 30.6691Z" fill="#FFB718"/>
<path d="M324.568 39.7395C323.742 40.5149 322.437 40.4732 321.661 39.6465C320.886 38.8198 320.927 37.5148 321.754 36.7394C322.581 35.9639 323.886 36.0056 324.661 36.8323C325.437 37.659 325.395 38.964 324.568 39.7395Z" fill="#EB5757"/>
<path d="M282.031 40.6773C281.906 40.7948 281.748 40.8802 281.578 40.9219L279.9 41.338L279.378 42.9859C279.325 43.1527 279.231 43.3034 279.105 43.4221C278.881 43.6318 278.578 43.7287 278.273 43.688C277.972 43.6486 277.705 43.4765 277.543 43.2172L276.629 41.7503L274.9 41.762C274.499 41.764 274.143 41.5407 273.972 41.177C273.802 40.8134 273.855 40.3962 274.114 40.0884L275.227 38.7656L274.681 37.1257C274.554 36.7449 274.656 36.3367 274.95 36.061C275.244 35.7853 275.657 35.708 276.03 35.86L277.631 36.5098L279.023 35.4835C279.346 35.2447 279.765 35.2172 280.118 35.4119C280.47 35.6053 280.671 35.9761 280.643 36.3756L280.521 38.0994L281.926 39.1061C282.176 39.2851 282.329 39.5615 282.349 39.8645C282.369 40.1725 282.253 40.4688 282.031 40.6773Z" fill="#FCE75F"/>
<path d="M360.445 40.8265C360.196 41.0603 359.848 41.1533 359.515 41.0744L357.832 40.6761L356.587 41.9278C356.3 42.1975 355.893 42.2762 355.525 42.1343C355.156 41.9924 354.908 41.6609 354.877 41.267L354.736 39.5447L353.194 38.7642C352.898 38.6147 352.693 38.3292 352.646 38.003C352.598 37.673 352.714 37.3409 352.956 37.1143C353.045 37.0304 353.147 36.9643 353.262 36.9159L354.856 36.2492L355.123 34.5411C355.159 34.313 355.264 34.1106 355.43 33.9548C355.632 33.7654 355.908 33.6652 356.187 33.6803C356.465 33.6954 356.719 33.82 356.902 34.0328L358.028 35.3442L359.735 35.0691C360.131 35.0049 360.518 35.1734 360.743 35.5053C360.967 35.8397 360.976 36.2589 360.768 36.603L359.87 38.0802L360.659 39.6188C360.869 40.0271 360.785 40.5127 360.449 40.8279L360.445 40.8265Z" fill="#FCE75F"/>
<path d="M206.202 40.2551C205.952 40.49 205.659 40.6703 205.335 40.7876C204.698 41.0201 204.007 40.9906 203.393 40.7045C202.778 40.4184 202.31 39.9089 202.078 39.2718C199.559 32.3671 194.558 31.0273 194.346 30.9734C192.999 30.654 192.156 29.2835 192.479 27.9206C192.594 27.4359 192.847 26.999 193.21 26.6586C193.836 26.0713 194.709 25.8389 195.544 26.0354C195.862 26.1113 203.374 27.9936 206.85 37.5305C207.199 38.4886 206.946 39.5575 206.202 40.2551Z" fill="#15DFB5"/>
<path d="M224.094 44.1178C223.514 44.6619 222.701 44.9049 221.919 44.7696C220.541 44.5297 219.614 43.2136 219.852 41.8368C219.896 41.5767 220.996 35.4333 225.112 31.5727C227.03 29.7736 229.305 28.7296 231.874 28.4697C233.267 28.3283 234.516 29.3473 234.658 30.7413C234.738 31.5358 234.451 32.305 233.868 32.8515C233.46 33.2351 232.946 33.469 232.387 33.5255C230.983 33.6678 229.706 34.2678 228.594 35.3105C225.738 37.9894 224.865 42.6613 224.858 42.7094C224.762 43.2529 224.497 43.7415 224.094 44.1202L224.094 44.1178Z" fill="#938BD8"/>
<path d="M214.892 41.3898C214.437 41.8165 214.027 42.1046 213.823 42.2356C213.256 42.6067 212.577 42.7349 211.913 42.596C211.249 42.457 210.679 42.067 210.308 41.4999C209.634 40.4657 209.796 39.1026 210.696 38.2588C210.801 38.1605 210.915 38.07 211.035 37.9908C211.109 37.941 211.193 37.8768 211.277 37.8051C208.326 36.2322 207.757 33.9248 207.684 32.6744C207.58 30.8962 208.341 29.0626 209.72 27.7694C209.984 27.5213 210.27 27.2937 210.569 27.095C210.83 26.9224 211.058 26.745 211.247 26.5676C211.679 26.1625 211.788 25.8673 211.786 25.7569C211.782 25.6142 211.59 25.2896 211.074 24.9806C209.539 24.0639 208.009 21.9737 208.276 19.5517C208.419 18.2574 209.048 17.0542 210.099 16.069C211.094 15.1353 212.483 14.3703 214.232 13.7941C214.876 13.5817 215.564 13.6322 216.171 13.9379C216.777 14.2436 217.227 14.7674 217.44 15.4112C217.748 16.3469 217.483 17.3858 216.764 18.0606C216.493 18.3147 216.177 18.5029 215.823 18.6192C214.467 19.0667 213.843 19.5276 213.591 19.7637C213.394 19.9483 213.333 20.0778 213.326 20.111C213.314 20.2135 213.51 20.5147 213.679 20.6156C215.658 21.7955 216.819 23.6248 216.868 25.633C216.89 26.5918 216.642 28.4727 214.715 30.2802C214.324 30.647 213.875 30.9982 213.383 31.3258C213.318 31.3696 213.254 31.4196 213.196 31.4748C212.918 31.7349 212.744 32.0949 212.76 32.3731C212.779 32.6922 213.143 33.0521 213.756 33.363C216.135 34.5669 216.71 36.199 216.774 37.3562C216.872 39.1403 215.808 40.5329 214.897 41.3875L214.892 41.3898Z" fill="#7EE6FD"/>
<path d="M252.753 43.4677C252.445 44.0102 252.139 44.4068 251.983 44.5924C251.552 45.115 250.941 45.4391 250.266 45.5033C249.591 45.5674 248.931 45.3641 248.408 44.9326C247.457 44.1451 247.208 42.7952 247.817 41.7225C247.888 41.5975 247.97 41.4771 248.062 41.3658C248.117 41.2965 248.178 41.2103 248.237 41.1169C244.953 40.4901 243.724 38.4556 243.284 37.2831C242.657 35.6159 242.84 33.639 243.773 31.9949C243.952 31.6795 244.157 31.3773 244.384 31.0989C244.582 30.8567 244.746 30.6198 244.874 30.3942C245.167 29.8792 245.184 29.5648 245.149 29.4601C245.102 29.3251 244.823 29.0719 244.239 28.9298C242.501 28.5098 240.419 26.9678 239.956 24.5757C239.708 23.2972 239.953 21.9614 240.663 20.7089C241.337 19.522 242.436 18.3793 243.935 17.3103C244.487 16.9164 245.16 16.7603 245.829 16.8724C246.499 16.9844 247.085 17.351 247.479 17.9028C248.051 18.7049 248.106 19.7756 247.619 20.6334C247.436 20.9564 247.19 21.2299 246.886 21.4461C245.724 22.2756 245.265 22.9011 245.094 23.2012C244.961 23.4359 244.941 23.5776 244.944 23.6115C244.963 23.7129 245.24 23.9424 245.431 23.9886C247.671 24.5283 249.323 25.9308 249.965 27.8341C250.271 28.743 250.592 30.613 249.288 32.9107C249.023 33.377 248.699 33.8456 248.326 34.3046C248.277 34.3655 248.231 34.4322 248.191 34.5023C248.004 34.8329 247.945 35.2284 248.042 35.4893C248.154 35.7886 248.609 36.0243 249.287 36.1391C251.915 36.5832 252.949 37.9712 253.354 39.0571C253.977 40.7319 253.373 42.3776 252.757 43.464L252.753 43.4677Z" fill="#FFB718"/>
<path d="M202.265 25.4531C201.886 25.809 201.37 25.9784 200.848 25.9197C200.332 25.861 199.869 25.5797 199.578 25.1465L197.974 22.7689C197.485 22.0418 197.593 21.0773 198.235 20.4756C198.534 20.1952 198.911 20.0312 199.326 20.0023L202.185 19.8037C202.826 19.7597 203.423 20.0503 203.782 20.5835C204.14 21.1168 204.187 21.7789 203.905 22.3561L202.646 24.9323C202.549 25.1287 202.421 25.3043 202.264 25.4518L202.265 25.4531Z" fill="#25BF6C"/>
<path d="M228.63 23.1058C228.544 23.1861 228.45 23.2574 228.35 23.3199L224.444 25.7569C223.899 26.0977 223.235 26.1199 222.668 25.8179C222.102 25.516 221.75 24.952 221.728 24.3105L221.571 19.7085C221.554 19.1961 221.757 18.703 222.129 18.3543C222.686 17.8317 223.511 17.7205 224.184 18.0791L228.247 20.2441C228.76 20.5171 229.098 21.0025 229.172 21.5763C229.247 22.1451 229.045 22.7162 228.631 23.1046L228.63 23.1058Z" fill="#15DFB5"/>
<path d="M184.764 30.6711C183.937 31.4466 182.632 31.4049 181.856 30.5782C181.081 29.7515 181.123 28.4465 181.949 27.671C182.776 26.8955 184.081 26.9372 184.856 27.7639C185.632 28.5906 185.59 29.8956 184.764 30.6711Z" fill="#FFB718"/>
<path d="M234.572 39.7395C233.745 40.5149 232.44 40.4732 231.665 39.6465C230.889 38.8198 230.931 37.5148 231.758 36.7394C232.585 35.9639 233.89 36.0056 234.665 36.8323C235.441 37.659 235.399 38.964 234.572 39.7395Z" fill="#EB5757"/>
<path d="M192.035 40.6773C191.909 40.7948 191.752 40.8802 191.582 40.9219L189.904 41.338L189.382 42.9859C189.329 43.1527 189.235 43.3034 189.109 43.4221C188.885 43.6318 188.582 43.7287 188.277 43.688C187.976 43.6486 187.709 43.4765 187.547 43.2172L186.632 41.7503L184.904 41.762C184.503 41.764 184.147 41.5407 183.976 41.177C183.806 40.8134 183.859 40.3962 184.117 40.0884L185.231 38.7656L184.684 37.1257C184.558 36.7449 184.66 36.3367 184.954 36.061C185.248 35.7853 185.661 35.708 186.034 35.86L187.635 36.5098L189.027 35.4835C189.35 35.2447 189.769 35.2172 190.122 35.4119C190.474 35.6053 190.675 35.9761 190.646 36.3756L190.524 38.0994L191.93 39.1061C192.18 39.2851 192.333 39.5615 192.353 39.8645C192.373 40.1725 192.257 40.4688 192.035 40.6773Z" fill="#FCE75F"/>
<path d="M270.449 40.8265C270.2 41.0603 269.852 41.1533 269.519 41.0744L267.836 40.6761L266.591 41.9278C266.304 42.1975 265.897 42.2762 265.529 42.1343C265.16 41.9924 264.912 41.6609 264.881 41.267L264.74 39.5447L263.198 38.7642C262.902 38.6147 262.697 38.3292 262.65 38.003C262.602 37.673 262.718 37.3409 262.96 37.1143C263.049 37.0304 263.151 36.9643 263.266 36.9159L264.86 36.2492L265.127 34.5411C265.163 34.313 265.268 34.1106 265.434 33.9548C265.636 33.7654 265.912 33.6652 266.19 33.6803C266.469 33.6954 266.723 33.82 266.905 34.0328L268.032 35.3442L269.739 35.0691C270.135 35.0049 270.522 35.1734 270.746 35.5053C270.971 35.8397 270.98 36.2589 270.772 36.603L269.873 38.0802L270.663 39.6188C270.873 40.0271 270.788 40.5127 270.452 40.8279L270.449 40.8265Z" fill="#FCE75F"/>
<path d="M166.202 40.2551C165.952 40.49 165.659 40.6703 165.335 40.7876C164.698 41.0201 164.007 40.9906 163.393 40.7045C162.778 40.4184 162.31 39.9089 162.078 39.2718C159.559 32.3671 154.558 31.0273 154.346 30.9734C152.999 30.654 152.156 29.2835 152.479 27.9206C152.594 27.4359 152.847 26.999 153.21 26.6586C153.836 26.0713 154.709 25.8389 155.544 26.0354C155.862 26.1113 163.374 27.9936 166.85 37.5305C167.199 38.4886 166.946 39.5575 166.202 40.2551Z" fill="#15DFB5"/>
<path d="M174.903 41.3898C174.448 41.8165 174.039 42.1046 173.835 42.2356C173.268 42.6067 172.588 42.7349 171.925 42.596C171.261 42.457 170.691 42.067 170.32 41.4999C169.645 40.4657 169.808 39.1026 170.707 38.2588C170.812 38.1605 170.927 38.07 171.047 37.9908C171.12 37.941 171.204 37.8768 171.288 37.8051C168.338 36.2322 167.769 33.9248 167.696 32.6744C167.591 30.8962 168.353 29.0626 169.731 27.7694C169.996 27.5213 170.282 27.2937 170.581 27.095C170.842 26.9224 171.069 26.745 171.258 26.5676C171.69 26.1625 171.8 25.8673 171.797 25.7569C171.793 25.6142 171.602 25.2896 171.086 24.9806C169.551 24.0639 168.02 21.9737 168.287 19.5517C168.43 18.2574 169.06 17.0542 170.11 16.069C171.106 15.1353 172.495 14.3703 174.243 13.7941C174.887 13.5817 175.576 13.6322 176.182 13.9379C176.788 14.2436 177.239 14.7674 177.451 15.4112C177.76 16.3469 177.495 17.3858 176.776 18.0606C176.505 18.3147 176.189 18.5029 175.834 18.6192C174.479 19.0667 173.854 19.5276 173.603 19.7637C173.406 19.9483 173.345 20.0778 173.338 20.111C173.326 20.2135 173.522 20.5147 173.691 20.6156C175.67 21.7955 176.831 23.6248 176.879 25.633C176.902 26.5918 176.653 28.4727 174.727 30.2802C174.336 30.647 173.887 30.9982 173.394 31.3258C173.33 31.3696 173.266 31.4196 173.207 31.4748C172.93 31.7349 172.756 32.0949 172.772 32.3731C172.79 32.6922 173.154 33.0521 173.768 33.363C176.146 34.5669 176.721 36.199 176.786 37.3562C176.884 39.1403 175.819 40.5329 174.908 41.3875L174.903 41.3898Z" fill="#F95A00"/>
<path d="M162.261 25.4511C161.882 25.8071 161.366 25.9765 160.844 25.9177C160.328 25.8591 159.865 25.5778 159.574 25.1446L157.971 22.767C157.481 22.0399 157.59 21.0754 158.231 20.4737C158.53 20.1932 158.907 20.0293 159.322 20.0004L162.181 19.8018C162.822 19.7578 163.419 20.0483 163.778 20.5816C164.136 21.1148 164.183 21.7769 163.901 22.3541L162.642 24.9303C162.545 25.1268 162.417 25.3024 162.26 25.4498L162.261 25.4511Z" fill="#25BF6C"/>
<path d="M188.63 23.1058C188.544 23.1861 188.45 23.2574 188.35 23.3199L184.444 25.7569C183.899 26.0977 183.235 26.1199 182.668 25.8179C182.102 25.516 181.75 24.952 181.728 24.3105L181.571 19.7085C181.554 19.1961 181.757 18.703 182.129 18.3543C182.686 17.8317 183.511 17.7205 184.184 18.0791L188.247 20.2441C188.76 20.5171 189.098 21.0025 189.172 21.5763C189.247 22.1451 189.045 22.7162 188.631 23.1046L188.63 23.1058Z" fill="#15DFB5"/>
<path d="M146.202 40.2551C145.952 40.49 145.659 40.6703 145.335 40.7876C144.698 41.0201 144.007 40.9906 143.393 40.7045C142.778 40.4184 142.31 39.9089 142.078 39.2718C139.559 32.3671 134.558 31.0273 134.346 30.9734C132.999 30.654 132.156 29.2835 132.479 27.9206C132.594 27.4359 132.847 26.999 133.21 26.6586C133.836 26.0713 134.709 25.8389 135.544 26.0354C135.862 26.1113 143.374 27.9936 146.85 37.5305C147.199 38.4886 146.946 39.5575 146.202 40.2551Z" fill="#15DFB5"/>
<path d="M142.261 25.4531C141.882 25.809 141.366 25.9784 140.844 25.9197C140.328 25.861 139.865 25.5797 139.574 25.1465L137.971 22.7689C137.481 22.0418 137.59 21.0773 138.231 20.4756C138.53 20.1952 138.907 20.0312 139.322 20.0023L142.181 19.8037C142.822 19.7597 143.419 20.0503 143.778 20.5835C144.136 21.1168 144.183 21.7789 143.901 22.3561L142.642 24.9323C142.545 25.1287 142.417 25.3043 142.26 25.4518L142.261 25.4531Z" fill="#25BF6C"/>
<path d="M124.76 30.6691C123.933 31.4446 122.628 31.4029 121.852 30.5762C121.077 29.7495 121.119 28.4445 121.945 27.669C122.772 26.8936 124.077 26.9353 124.853 27.762C125.628 28.5886 125.586 29.8937 124.76 30.6691Z" fill="#FFB718"/>
<path d="M56.2019 40.2551C55.9515 40.49 55.6594 40.6703 55.3347 40.7876C54.6976 41.0201 54.007 40.9906 53.3927 40.7045C52.7784 40.4184 52.3101 39.9089 52.0776 39.2718C49.5592 32.3671 44.5576 31.0273 44.3461 30.9734C42.9992 30.654 42.1555 29.2835 42.4792 27.9206C42.5938 27.4359 42.847 26.999 43.2099 26.6586C43.836 26.0713 44.7085 25.8389 45.5438 26.0354C45.8624 26.1113 53.3738 27.9936 56.8505 37.5305C57.1991 38.4886 56.9456 39.5575 56.2019 40.2551Z" fill="#15DFB5"/>
<path d="M74.0937 44.1178C73.5136 44.6619 72.7014 44.9049 71.9187 44.7696C70.5407 44.5297 69.6136 43.2136 69.8522 41.8368C69.8964 41.5767 70.9963 35.4333 75.1119 31.5727C77.0297 29.7736 79.3052 28.7296 81.8742 28.4697C83.2668 28.3283 84.5158 29.3473 84.6584 30.7413C84.7384 31.5358 84.451 32.305 83.8684 32.8515C83.4595 33.2351 82.9464 33.469 82.3868 33.5255C80.983 33.6678 79.7058 34.2678 78.5941 35.3105C75.7384 37.9894 74.8653 42.6613 74.8575 42.7094C74.7621 43.2529 74.4974 43.7415 74.0936 44.1202L74.0937 44.1178Z" fill="#938BD8"/>
<path d="M64.8915 41.3898C64.4366 41.8165 64.0271 42.1046 63.8234 42.2356C63.2563 42.6067 62.5767 42.7349 61.9131 42.596C61.2495 42.457 60.6794 42.067 60.3083 41.4999C59.6337 40.4657 59.7962 39.1026 60.6958 38.2588C60.8005 38.1605 60.915 38.07 61.0353 37.9908C61.1087 37.941 61.1926 37.8768 61.2767 37.8051C58.3263 36.2322 57.7568 33.9248 57.684 32.6744C57.5797 30.8962 58.3411 29.0626 59.7197 27.7694C59.9842 27.5213 60.2704 27.2937 60.5692 27.095C60.83 26.9224 61.0576 26.745 61.2467 26.5676C61.6785 26.1625 61.7884 25.8673 61.7857 25.7569C61.7816 25.6142 61.5899 25.2896 61.0743 24.9806C59.5395 24.0639 58.0087 21.9737 58.2757 19.5517C58.4187 18.2574 59.0484 17.0542 60.0986 16.069C61.094 15.1353 62.483 14.3703 64.2317 13.7941C64.8755 13.5817 65.5643 13.6322 66.1705 13.9379C66.7767 14.2436 67.2272 14.7674 67.4397 15.4112C67.7481 16.3469 67.4832 17.3858 66.7638 18.0606C66.4929 18.3147 66.177 18.5029 65.8226 18.6192C64.4672 19.0667 63.8427 19.5276 63.591 19.7637C63.3942 19.9483 63.3331 20.0778 63.3258 20.111C63.3139 20.2135 63.51 20.5147 63.679 20.6156C65.6578 21.7955 66.819 23.6248 66.8676 25.633C66.8902 26.5918 66.6417 28.4727 64.7149 30.2802C64.3239 30.647 63.8752 30.9982 63.3826 31.3258C63.3179 31.3696 63.2544 31.4196 63.1956 31.4748C62.9183 31.7349 62.7445 32.0949 62.7604 32.3731C62.7787 32.6922 63.1427 33.0521 63.7562 33.363C66.1346 34.5669 66.7096 36.199 66.7742 37.3562C66.8721 39.1403 65.8076 40.5329 64.8965 41.3875L64.8915 41.3898Z" fill="#7EE6FD"/>
<path d="M102.753 43.4697C102.445 44.0121 102.139 44.4087 101.983 44.5943C101.552 45.1169 100.941 45.441 100.266 45.5052C99.5911 45.5694 98.931 45.366 98.4084 44.9345C97.4573 44.1471 97.2081 42.7971 97.8168 41.7244C97.8877 41.5995 97.9701 41.4791 98.0615 41.3678C98.1169 41.2985 98.1779 41.2123 98.237 41.1189C94.9528 40.4921 93.7244 38.4575 93.2838 37.285C92.6567 35.6178 92.8398 33.641 93.7727 31.9969C93.9516 31.6815 94.1574 31.3792 94.3838 31.1009C94.5817 30.8586 94.7464 30.6217 94.8743 30.3962C95.1666 29.8812 95.1839 29.5667 95.1486 29.4621C95.1023 29.3271 94.823 29.0739 94.2389 28.9318C92.5012 28.5118 90.4192 26.9698 89.9556 24.5777C89.7082 23.2992 89.9525 21.9634 90.6632 20.7109C91.3367 19.5239 92.4363 18.3813 93.9352 17.3122C94.4871 16.9183 95.1598 16.7623 95.8294 16.8743C96.499 16.9864 97.0847 17.3529 97.4786 17.9048C98.0507 18.7068 98.1059 19.7775 97.6191 20.6354C97.4358 20.9584 97.19 21.2318 96.886 21.4481C95.7245 22.2775 95.2648 22.903 95.0945 23.2032C94.9613 23.4378 94.9413 23.5796 94.9443 23.6135C94.9633 23.7149 95.2399 23.9444 95.4313 23.9905C97.6711 24.5303 99.3227 25.9327 99.9649 27.8361C100.271 28.745 100.592 30.6149 99.2879 32.9127C99.0233 33.3789 98.699 33.8475 98.3257 34.3065C98.277 34.3675 98.2312 34.4341 98.1914 34.5042C98.0038 34.8349 97.9446 35.2303 98.0423 35.4912C98.1544 35.7905 98.6089 36.0262 99.287 36.1411C101.915 36.5851 102.949 37.9732 103.354 39.0591C103.977 40.7339 103.373 42.3796 102.757 43.466L102.753 43.4697Z" fill="#FFB718"/>
<path d="M52.2651 25.4511C51.8856 25.8071 51.3695 25.9765 50.8484 25.9177C50.3322 25.8591 49.8689 25.5778 49.5779 25.1446L47.9745 22.767C47.4846 22.0399 47.5935 21.0754 48.2349 20.4737C48.5339 20.1932 48.911 20.0293 49.3259 20.0004L52.1854 19.8018C52.8263 19.7578 53.4231 20.0483 53.7816 20.5816C54.1401 21.1148 54.1871 21.7769 53.9046 22.3541L52.6461 24.9303C52.5493 25.1268 52.421 25.3024 52.2639 25.4498L52.2651 25.4511Z" fill="#25BF6C"/>
<path d="M78.63 23.1058C78.5444 23.1861 78.4504 23.2574 78.3504 23.3199L74.444 25.7569C73.8989 26.0977 73.2351 26.1199 72.6684 25.8179C72.1018 25.516 71.7504 24.952 71.7276 24.3105L71.571 19.7085C71.5539 19.1961 71.7568 18.703 72.1286 18.3543C72.6857 17.8317 73.511 17.7205 74.1837 18.0791L78.2467 20.2441C78.7598 20.5171 79.0975 21.0025 79.1721 21.5763C79.2469 22.1451 79.0452 22.7162 78.6312 23.1046L78.63 23.1058Z" fill="#15DFB5"/>
<path d="M34.7635 30.6711C33.9368 31.4466 32.6318 31.4049 31.8564 30.5782C31.0809 29.7515 31.1226 28.4465 31.9493 27.671C32.776 26.8955 34.081 26.9372 34.8565 27.7639C35.6319 28.5906 35.5902 29.8956 34.7635 30.6711Z" fill="#FFB718"/>
<path d="M84.5721 39.7395C83.7454 40.5149 82.4404 40.4732 81.6649 39.6465C80.8895 38.8198 80.9312 37.5148 81.7579 36.7394C82.5846 35.9639 83.8896 36.0056 84.665 36.8323C85.4405 37.659 85.3988 38.964 84.5721 39.7395Z" fill="#EB5757"/>
<path d="M16.116 40.2551C15.8656 40.49 15.5735 40.6703 15.2487 40.7876C14.6117 41.0201 13.921 40.9906 13.3068 40.7045C12.6925 40.4184 12.2241 39.9089 11.9917 39.2718C9.47324 32.3671 4.47163 31.0273 4.26017 30.9734C2.91321 30.654 2.06959 29.2835 2.39326 27.9206C2.50791 27.4359 2.76108 26.999 3.12395 26.6586C3.75004 26.0713 4.62258 25.8389 5.45787 26.0354C5.77645 26.1113 13.2879 27.9936 16.7645 37.5305C17.1132 38.4886 16.8596 39.5575 16.116 40.2551Z" fill="#15DFB5"/>
<path d="M24.9032 41.3898C24.4484 41.8165 24.0388 42.1046 23.8351 42.2356C23.268 42.6067 22.5884 42.7349 21.9248 42.596C21.2612 42.457 20.6911 42.067 20.3201 41.4999C19.6454 40.4657 19.808 39.1026 20.7075 38.2588C20.8123 38.1605 20.9267 38.07 21.047 37.9908C21.1204 37.941 21.2043 37.8768 21.2884 37.8051C18.338 36.2322 17.7685 33.9248 17.6957 32.6744C17.5914 30.8962 18.3528 29.0626 19.7314 27.7694C19.9959 27.5213 20.2821 27.2937 20.5809 27.095C20.8418 26.9224 21.0693 26.745 21.2584 26.5676C21.6903 26.1625 21.8001 25.8673 21.7974 25.7569C21.7933 25.6142 21.6017 25.2896 21.086 24.9806C19.5512 24.0639 18.0204 21.9737 18.2874 19.5517C18.4304 18.2574 19.0601 17.0542 20.1104 16.069C21.1057 15.1353 22.4948 14.3703 24.2434 13.7941C24.8873 13.5817 25.576 13.6322 26.1822 13.9379C26.7884 14.2436 27.239 14.7674 27.4514 15.4112C27.7598 16.3469 27.4949 17.3858 26.7755 18.0606C26.5046 18.3147 26.1888 18.5029 25.8343 18.6192C24.4789 19.0667 23.8544 19.5276 23.6027 19.7637C23.4059 19.9483 23.3448 20.0778 23.3375 20.111C23.3256 20.2135 23.5217 20.5147 23.6907 20.6156C25.6696 21.7955 26.8307 23.6248 26.8793 25.633C26.9019 26.5918 26.6534 28.4727 24.7266 30.2802C24.3356 30.647 23.8869 30.9982 23.3943 31.3258C23.3297 31.3696 23.2661 31.4196 23.2073 31.4748C22.9301 31.7349 22.7562 32.0949 22.7721 32.3731C22.7904 32.6922 23.1544 33.0521 23.7679 33.363C26.1463 34.5669 26.7213 36.199 26.7859 37.3562C26.8838 39.1403 25.8193 40.5329 24.9083 41.3875L24.9032 41.3898Z" fill="#F95A00"/>
<path d="M12.1752 25.4531C11.7957 25.809 11.2797 25.9784 10.7585 25.9197C10.2423 25.861 9.7791 25.5797 9.48804 25.1465L7.88463 22.7689C7.39475 22.0418 7.50366 21.0773 8.14507 20.4756C8.44406 20.1952 8.82113 20.0312 9.23602 20.0023L12.0955 19.8037C12.7365 19.7597 13.3332 20.0503 13.6917 20.5835C14.0502 21.1168 14.0973 21.7789 13.8148 22.3561L12.5563 24.9323C12.4595 25.1287 12.3312 25.3043 12.174 25.4518L12.1752 25.4531Z" fill="#25BF6C"/>
<path d="M38.63 23.1058C38.5444 23.1861 38.4504 23.2574 38.3504 23.3199L34.444 25.7569C33.8989 26.0977 33.2351 26.1199 32.6684 25.8179C32.1018 25.516 31.7504 24.952 31.7276 24.3105L31.571 19.7085C31.5539 19.1961 31.7568 18.703 32.1286 18.3543C32.6857 17.8317 33.511 17.7205 34.1837 18.0791L38.2467 20.2441C38.7598 20.5171 39.0975 21.0025 39.1721 21.5763C39.2469 22.1451 39.0452 22.7162 38.6312 23.1046L38.63 23.1058Z" fill="#15DFB5"/>
<path d="M152.031 40.6773C151.906 40.7948 151.748 40.8802 151.578 40.9219L149.9 41.338L149.378 42.9859C149.325 43.1527 149.231 43.3034 149.105 43.4221C148.881 43.6318 148.578 43.7287 148.273 43.688C147.972 43.6486 147.705 43.4765 147.543 43.2172L146.629 41.7503L144.9 41.762C144.499 41.764 144.143 41.5407 143.972 41.177C143.802 40.8134 143.855 40.3962 144.114 40.0884L145.227 38.7656L144.681 37.1257C144.554 36.7449 144.656 36.3367 144.95 36.061C145.244 35.7853 145.657 35.708 146.03 35.86L147.631 36.5098L149.023 35.4835C149.346 35.2447 149.765 35.2172 150.118 35.4119C150.47 35.6053 150.671 35.9761 150.643 36.3756L150.521 38.0994L151.926 39.1061C152.176 39.2851 152.329 39.5615 152.349 39.8645C152.369 40.1725 152.253 40.4688 152.031 40.6773Z" fill="#FCE75F"/>
</svg>
